Heebo-Thin.ufo
<glyph name="slash" format="2">
  <advance width="782"/>
  <unicode hex="002F"/>
  <guideline y="901"/>
  <guideline y="555"/>
  <outline>
    <contour>
      <point x="101" y="-125" type="line"/>
      <point x="709" y="1456" type="line"/>
      <point x="650" y="1456" type="line"/>
      <point x="42" y="-125" type="line"/>
    </contour>
  </outline>
</glyph>
<glyph name="one" format="2">
  <advance width="1121"/>
  <unicode hex="0031"/>
  <guideline y="901"/>
  <guideline y="555"/>
  <outline>
    <contour>
      <point x="659" y="0" type="line"/>
      <point x="659" y="1460" type="line"/>
      <point x="648" y="1460" type="line"/>
      <point x="187" y="1290" type="line"/>
      <point x="187" y="1231" type="line"/>
      <point x="605" y="1388" type="line"/>
      <point x="605" y="0" type="line"/>
    </contour>
  </outline>
</glyph>
<glyph name="J" format="2">
  <advance width="1125"/>
  <unicode hex="004A"/>
  <guideline y="901"/>
  <guideline y="555"/>
  <anchor x="512" y="-10" name="bottom"/>
  <anchor x="1125" y="-407" name="bottom_dd"/>
  <anchor x="902" y="1582" name="top"/>
  <anchor x="1125" y="1582" name="top0315"/>
  <anchor x="1125" y="1600" name="top_dd"/>
  <outline>
    <contour>
      <point x="876" y="1456" type="line"/>
      <point x="876" y="442" type="line"/>
      <point x="876" y="173"/>
      <point x="710" y="34"/>
      <point x="510" y="34" type="curve" smooth="yes"/>
      <point x="267" y="34"/>
      <point x="144" y="165"/>
      <point x="144" y="401" type="curve"/>
      <point x="90" y="401" type="line"/>
      <point x="90" y="116"/>
      <point x="253" y="-20"/>
      <point x="510" y="-20" type="curve" smooth="yes"/>
      <point x="747" y="-20"/>
      <point x="930" y="143"/>
      <point x="930" y="442" type="curve"/>
      <point x="930" y="1456" type="line"/>
    </contour>
  </outline>
</glyph>
<glyph name="P" format="2">
  <advance width="1230"/>
  <unicode hex="0050"/>
  <guideline y="901"/>
  <guideline y="555"/>
  <anchor x="530" y="10" name="bottom"/>
  <anchor x="1230" y="-407" name="bottom_dd"/>
  <anchor x="-8" y="1454" name="tonos"/>
  <anchor x="560" y="1612" name="top"/>
  <anchor x="1230" y="1612" name="top0315"/>
  <anchor x="1230" y="1600" name="top_dd"/>
  <outline>
    <contour>
      <point x="213" y="615" type="line"/>
      <point x="655" y="615" type="line"/>
      <point x="966" y="615"/>
      <point x="1125" y="774"/>
      <point x="1125" y="1031" type="curve"/>
      <point x="1125" y="1287"/>
      <point x="965" y="1456"/>
      <point x="655" y="1456" type="curve"/>
      <point x="200" y="1456" type="line"/>
      <point x="200" y="0" type="line"/>
      <point x="254" y="0" type="line"/>
      <point x="254" y="1402" type="line"/>
      <point x="655" y="1402" type="line"/>
      <point x="949" y="1402"/>
      <point x="1071" y="1235"/>
      <point x="1071" y="1029" type="curve"/>
      <point x="1071" y="831"/>
      <point x="949" y="669"/>
      <point x="655" y="669" type="curve"/>
      <point x="213" y="669" type="line"/>
    </contour>
  </outline>
</glyph>
<glyph name="backslash" format="2">
  <advance width="774"/>
  <unicode hex="005C"/>
  <guideline y="901"/>
  <guideline y="555"/>
  <outline>
    <contour>
      <point x="57" y="1456" type="line"/>
      <point x="665" y="-125" type="line"/>
      <point x="723" y="-125" type="line"/>
      <point x="115" y="1456" type="line"/>
    </contour>
  </outline>
</glyph>
<glyph name="grave" format="2">
  <advance width="537"/>
  <unicode hex="0060"/>
  <outline>
    <contour>
      <point x="403" y="1270" type="line"/>
      <point x="215" y="1536" type="line"/>
      <point x="149" y="1536" type="line"/>
      <point x="344" y="1270" type="line"/>
    </contour>
  </outline>
</glyph>
<glyph name="f" format="2">
  <advance width="645"/>
  <unicode hex="0066"/>
  <guideline y="894"/>
  <guideline y="187"/>
  <anchor x="330" y="10" name="bottom"/>
  <anchor x="645" y="-407" name="bottom_dd"/>
  <anchor x="518" y="1680" name="top"/>
  <anchor x="645" y="1680" name="top0315"/>
  <anchor x="645" y="1600" name="top_dd"/>
  <outline>
    <contour>
      <point x="254" y="0" type="line"/>
      <point x="308" y="0" type="line"/>
      <point x="308" y="1236" type="line"/>
      <point x="308" y="1405"/>
      <point x="396" y="1503"/>
      <point x="538" y="1503" type="curve" smooth="yes"/>
      <point x="592" y="1503"/>
      <point x="619" y="1498"/>
      <point x="657" y="1488" type="curve"/>
      <point x="665" y="1540" type="line"/>
      <point x="623" y="1553"/>
      <point x="578" y="1557"/>
      <point x="537" y="1557" type="curve" smooth="yes"/>
      <point x="361" y="1557"/>
      <point x="254" y="1443"/>
      <point x="254" y="1236" type="curve"/>
    </contour>
    <contour>
      <point x="594" y="1027" type="line"/>
      <point x="594" y="1082" type="line"/>
      <point x="66" y="1082" type="line"/>
      <point x="66" y="1027" type="line"/>
    </contour>
  </outline>
</glyph>
<glyph name="v" format="2">
  <advance width="978"/>
  <unicode hex="0076"/>
  <guideline y="901"/>
  <guideline y="555"/>
  <anchor x="489" y="10" name="bottom"/>
  <anchor x="978" y="-407" name="bottom_dd"/>
  <anchor x="494" y="1280" name="top"/>
  <anchor x="978" y="1280" name="top0315"/>
  <anchor x="978" y="1600" name="top_dd"/>
  <outline>
    <contour>
      <point x="879" y="1082" type="line"/>
      <point x="481" y="64" type="line"/>
      <point x="465" y="0" type="line"/>
      <point x="516" y="0" type="line"/>
      <point x="937" y="1082" type="line"/>
    </contour>
    <contour>
      <point x="499" y="63" type="line"/>
      <point x="101" y="1082" type="line"/>
      <point x="43" y="1082" type="line"/>
      <point x="463" y="0" type="line"/>
      <point x="515" y="0" type="line"/>
    </contour>
  </outline>
</glyph>
<glyph name="x" format="2">
  <advance width="978"/>
  <unicode hex="0078"/>
  <guideline y="901"/>
  <guideline y="555"/>
  <guideline x="547"/>
  <anchor x="514" y="10" name="bottom"/>
  <anchor x="978" y="-407" name="bottom_dd"/>
  <anchor x="499" y="553" name="cross"/>
  <anchor x="890" y="0" name="right"/>
  <anchor x="507" y="1280" name="top"/>
  <anchor x="978" y="1280" name="top0315"/>
  <anchor x="978" y="1600" name="top_dd"/>
  <outline>
    <contour>
      <point x="489" y="602" type="line"/>
      <point x="143" y="1082" type="line"/>
      <point x="75" y="1082" type="line"/>
      <point x="455" y="555" type="line"/>
      <point x="55" y="0" type="line"/>
      <point x="122" y="0" type="line"/>
      <point x="488" y="508" type="line"/>
      <point x="855" y="0" type="line"/>
      <point x="922" y="0" type="line"/>
      <point x="522" y="555" type="line"/>
      <point x="902" y="1082" type="line"/>
      <point x="834" y="1082" type="line"/>
    </contour>
  </outline>
</glyph>
<glyph name="bar" format="2">
  <advance width="406"/>
  <unicode hex="007C"/>
  <guideline y="901"/>
  <guideline y="555"/>
  <outline>
    <contour>
      <point x="235" y="-270" type="line"/>
      <point x="235" y="1456" type="line"/>
      <point x="181" y="1456" type="line"/>
      <point x="181" y="-270" type="line"/>
    </contour>
  </outline>
</glyph>
<glyph name="brokenbar" format="2">
  <advance width="398"/>
  <unicode hex="00A6"/>
  <guideline y="901"/>
  <guideline y="555"/>
  <outline>
    <contour>
      <point x="172" y="-270" type="line"/>
      <point x="226" y="-270" type="line"/>
      <point x="226" y="482" type="line"/>
      <point x="172" y="482" type="line"/>
    </contour>
    <contour>
      <point x="226" y="698" type="line"/>
      <point x="226" y="1456" type="line"/>
      <point x="172" y="1456" type="line"/>
      <point x="172" y="698" type="line"/>
    </contour>
  </outline>
</glyph>
<glyph name="macron" format="2">
  <advance width="811"/>
  <unicode hex="00AF"/>
  <outline>
    <contour>
      <point x="699" y="1383" type="line"/>
      <point x="699" y="1436" type="line"/>
      <point x="132" y="1436" type="line"/>
      <point x="132" y="1383" type="line"/>
    </contour>
  </outline>
</glyph>
<glyph name="hatafsegolhebrew" format="2">
  <unicode hex="05B1"/>
  <anchor x="563" y="0" name="_bottom"/>
  <outline>
    <contour>
      <point x="382" y="-291" type="curve" smooth="yes"/>
      <point x="413" y="-291"/>
      <point x="438" y="-267"/>
      <point x="438" y="-236" type="curve" smooth="yes"/>
      <point x="438" y="-205"/>
      <point x="413" y="-180"/>
      <point x="382" y="-180" type="curve" smooth="yes"/>
      <point x="351" y="-180"/>
      <point x="327" y="-205"/>
      <point x="327" y="-236" type="curve" smooth="yes"/>
      <point x="327" y="-267"/>
      <point x="351" y="-291"/>
    </contour>
    <contour>
      <point x="562" y="-291" type="curve" smooth="yes"/>
      <point x="593" y="-291"/>
      <point x="618" y="-267"/>
      <point x="618" y="-236" type="curve" smooth="yes"/>
      <point x="618" y="-205"/>
      <point x="593" y="-180"/>
      <point x="562" y="-180" type="curve" smooth="yes"/>
      <point x="531" y="-180"/>
      <point x="507" y="-205"/>
      <point x="507" y="-236" type="curve" smooth="yes"/>
      <point x="507" y="-267"/>
      <point x="531" y="-291"/>
    </contour>
    <contour>
      <point x="742" y="-291" type="curve" smooth="yes"/>
      <point x="773" y="-291"/>
      <point x="798" y="-267"/>
      <point x="798" y="-236" type="curve" smooth="yes"/>
      <point x="798" y="-205"/>
      <point x="773" y="-180"/>
      <point x="742" y="-180" type="curve" smooth="yes"/>
      <point x="711" y="-180"/>
      <point x="687" y="-205"/>
      <point x="687" y="-236" type="curve" smooth="yes"/>
      <point x="687" y="-267"/>
      <point x="711" y="-291"/>
    </contour>
    <contour>
      <point x="472" y="-451" type="curve" smooth="yes"/>
      <point x="503" y="-451"/>
      <point x="528" y="-427"/>
      <point x="528" y="-396" type="curve" smooth="yes"/>
      <point x="528" y="-365"/>
      <point x="503" y="-340"/>
      <point x="472" y="-340" type="curve" smooth="yes"/>
      <point x="441" y="-340"/>
      <point x="417" y="-365"/>
      <point x="417" y="-396" type="curve" smooth="yes"/>
      <point x="417" y="-427"/>
      <point x="441" y="-451"/>
    </contour>
    <contour>
      <point x="742" y="-481" type="curve" smooth="yes"/>
      <point x="773" y="-481"/>
      <point x="798" y="-457"/>
      <point x="798" y="-426" type="curve" smooth="yes"/>
      <point x="798" y="-395"/>
      <point x="773" y="-370"/>
      <point x="742" y="-370" type="curve" smooth="yes"/>
      <point x="711" y="-370"/>
      <point x="687" y="-395"/>
      <point x="687" y="-426" type="curve" smooth="yes"/>
      <point x="687" y="-457"/>
      <point x="711" y="-481"/>
    </contour>
  </outline>
</glyph>
<glyph name="hatafpatahhebrew" format="2">
  <unicode hex="05B2"/>
  <anchor x="563" y="0" name="_bottom"/>
  <outline>
    <contour>
      <point x="346" y="-263" type="line"/>
      <point x="612" y="-263" type="line"/>
      <point x="612" y="-207" type="line"/>
      <point x="346" y="-207" type="line"/>
    </contour>
    <contour>
      <point x="724" y="-481" type="curve" smooth="yes"/>
      <point x="755" y="-481"/>
      <point x="780" y="-457"/>
      <point x="780" y="-426" type="curve" smooth="yes"/>
      <point x="780" y="-395"/>
      <point x="755" y="-370"/>
      <point x="724" y="-370" type="curve" smooth="yes"/>
      <point x="693" y="-370"/>
      <point x="669" y="-395"/>
      <point x="669" y="-426" type="curve" smooth="yes"/>
      <point x="669" y="-457"/>
      <point x="693" y="-481"/>
    </contour>
    <contour>
      <point x="724" y="-291" type="curve" smooth="yes"/>
      <point x="755" y="-291"/>
      <point x="780" y="-267"/>
      <point x="780" y="-236" type="curve" smooth="yes"/>
      <point x="780" y="-205"/>
      <point x="755" y="-180"/>
      <point x="724" y="-180" type="curve" smooth="yes"/>
      <point x="693" y="-180"/>
      <point x="669" y="-205"/>
      <point x="669" y="-236" type="curve" smooth="yes"/>
      <point x="669" y="-267"/>
      <point x="693" y="-291"/>
    </contour>
  </outline>
</glyph>
<glyph name="hatafqamatshebrew" format="2">
  <unicode hex="05B3"/>
  <anchor x="563" y="0" name="_bottom"/>
  <outline>
    <contour>
      <point x="484" y="-451" type="curve" smooth="yes"/>
      <point x="515" y="-451"/>
      <point x="540" y="-427"/>
      <point x="540" y="-396" type="curve" smooth="yes"/>
      <point x="540" y="-354"/>
      <point x="511" y="-356"/>
      <point x="507" y="-263" type="curve"/>
      <point x="616" y="-263" type="line"/>
      <point x="616" y="-207" type="line"/>
      <point x="345" y="-207" type="line"/>
      <point x="345" y="-263" type="line"/>
      <point x="461" y="-263" type="line"/>
      <point x="457" y="-356"/>
      <point x="429" y="-354"/>
      <point x="429" y="-396" type="curve" smooth="yes"/>
      <point x="429" y="-421"/>
      <point x="453" y="-451"/>
    </contour>
    <contour>
      <point x="725" y="-481" type="curve" smooth="yes"/>
      <point x="756" y="-481"/>
      <point x="781" y="-457"/>
      <point x="781" y="-426" type="curve" smooth="yes"/>
      <point x="781" y="-395"/>
      <point x="756" y="-370"/>
      <point x="725" y="-370" type="curve" smooth="yes"/>
      <point x="694" y="-370"/>
      <point x="670" y="-395"/>
      <point x="670" y="-426" type="curve" smooth="yes"/>
      <point x="670" y="-457"/>
      <point x="694" y="-481"/>
    </contour>
    <contour>
      <point x="725" y="-291" type="curve" smooth="yes"/>
      <point x="756" y="-291"/>
      <point x="781" y="-267"/>
      <point x="781" y="-236" type="curve" smooth="yes"/>
      <point x="781" y="-205"/>
      <point x="756" y="-180"/>
      <point x="725" y="-180" type="curve" smooth="yes"/>
      <point x="694" y="-180"/>
      <point x="670" y="-205"/>
      <point x="670" y="-236" type="curve" smooth="yes"/>
      <point x="670" y="-267"/>
      <point x="694" y="-291"/>
    </contour>
  </outline>
</glyph>
<glyph name="segolhebrew" format="2">
  <unicode hex="05B6"/>
  <anchor x="563" y="0" name="_bottom"/>
  <outline>
    <contour>
      <point x="652" y="-291" type="curve" smooth="yes"/>
      <point x="683" y="-291"/>
      <point x="708" y="-267"/>
      <point x="708" y="-236" type="curve" smooth="yes"/>
      <point x="708" y="-205"/>
      <point x="683" y="-180"/>
      <point x="652" y="-180" type="curve" smooth="yes"/>
      <point x="621" y="-180"/>
      <point x="597" y="-205"/>
      <point x="597" y="-236" type="curve" smooth="yes"/>
      <point x="597" y="-261"/>
      <point x="621" y="-291"/>
    </contour>
    <contour>
      <point x="562" y="-451" type="curve" smooth="yes"/>
      <point x="593" y="-451"/>
      <point x="618" y="-427"/>
      <point x="618" y="-396" type="curve" smooth="yes"/>
      <point x="618" y="-365"/>
      <point x="593" y="-340"/>
      <point x="562" y="-340" type="curve" smooth="yes"/>
      <point x="531" y="-340"/>
      <point x="507" y="-365"/>
      <point x="507" y="-396" type="curve" smooth="yes"/>
      <point x="507" y="-427"/>
      <point x="531" y="-451"/>
    </contour>
    <contour>
      <point x="472" y="-291" type="curve" smooth="yes"/>
      <point x="503" y="-291"/>
      <point x="528" y="-267"/>
      <point x="528" y="-236" type="curve" smooth="yes"/>
      <point x="528" y="-205"/>
      <point x="503" y="-180"/>
      <point x="472" y="-180" type="curve" smooth="yes"/>
      <point x="441" y="-180"/>
      <point x="417" y="-205"/>
      <point x="417" y="-236" type="curve" smooth="yes"/>
      <point x="417" y="-261"/>
      <point x="441" y="-291"/>
    </contour>
  </outline>
</glyph>
<glyph name="qamatshebrew" format="2">
  <unicode hex="05B8"/>
  <anchor x="563" y="0" name="_bottom"/>
  <outline>
    <contour>
      <point x="566" y="-451" type="curve" smooth="yes"/>
      <point x="597" y="-451"/>
      <point x="622" y="-427"/>
      <point x="622" y="-396" type="curve" smooth="yes"/>
      <point x="622" y="-354"/>
      <point x="593" y="-356"/>
      <point x="589" y="-263" type="curve"/>
      <point x="728" y="-263" type="line"/>
      <point x="728" y="-207" type="line"/>
      <point x="397" y="-207" type="line"/>
      <point x="397" y="-263" type="line"/>
      <point x="543" y="-263" type="line"/>
      <point x="539" y="-356"/>
      <point x="511" y="-354"/>
      <point x="511" y="-396" type="curve" smooth="yes"/>
      <point x="511" y="-421"/>
      <point x="535" y="-451"/>
    </contour>
  </outline>
</glyph>
<glyph name="maqafhebrew" format="2">
  <advance width="443"/>
  <unicode hex="05BE"/>
  <outline>
    <contour>
      <point x="383" y="1102" type="line"/>
      <point x="383" y="1157" type="line"/>
      <point x="60" y="1157" type="line"/>
      <point x="60" y="1102" type="line"/>
    </contour>
  </outline>
</glyph>
<glyph name="shindothebrew" format="2">
  <unicode hex="05C1"/>
  <anchor x="0" y="1157" name="_topright"/>
  <outline>
    <contour>
      <point x="1234" y="1309" type="curve" smooth="yes"/>
      <point x="1265" y="1309"/>
      <point x="1290" y="1333"/>
      <point x="1290" y="1364" type="curve" smooth="yes"/>
      <point x="1290" y="1395"/>
      <point x="1265" y="1420"/>
      <point x="1234" y="1420" type="curve" smooth="yes"/>
      <point x="1203" y="1420"/>
      <point x="1179" y="1395"/>
      <point x="1179" y="1364" type="curve" smooth="yes"/>
      <point x="1179" y="1339"/>
      <point x="1203" y="1309"/>
    </contour>
  </outline>
</glyph>
<glyph name="alefhebrew" format="2">
  <advance width="1228"/>
  <unicode hex="05D0"/>
  <anchor x="640" y="0" name="bottom"/>
  <anchor x="515" y="280" name="center"/>
  <anchor x="637" y="1157" name="top"/>
  <anchor x="45" y="1157" name="topleft"/>
  <outline>
    <contour>
      <point x="1045" y="0" type="line"/>
      <point x="1113" y="0" type="line"/>
      <point x="238" y="1157" type="line"/>
      <point x="170" y="1157" type="line"/>
    </contour>
    <contour>
      <point x="206" y="0" type="line"/>
      <point x="265" y="0" type="line"/>
      <point x="265" y="456" type="line" smooth="yes"/>
      <point x="265" y="636"/>
      <point x="333" y="754"/>
      <point x="472" y="804" type="curve"/>
      <point x="436" y="840" type="line"/>
      <point x="285" y="783"/>
      <point x="206" y="651"/>
      <point x="206" y="456" type="curve" smooth="yes"/>
    </contour>
    <contour>
      <point x="1110" y="1157" type="line"/>
      <point x="1041" y="1157" type="line"/>
      <point x="650" y="532" type="line"/>
      <point x="694" y="492" type="line"/>
    </contour>
  </outline>
</glyph>
<glyph name="gimelhebrew" format="2">
  <advance width="728"/>
  <unicode hex="05D2"/>
  <anchor x="323" y="0" name="bottom"/>
  <anchor x="220" y="603" name="center"/>
  <anchor x="336" y="1157" name="top"/>
  <anchor x="48" y="1157" name="topleft"/>
  <outline>
    <contour>
      <point x="33" y="-3" type="curve" smooth="yes"/>
      <point x="261" y="-3"/>
      <point x="442" y="178"/>
      <point x="460" y="356" type="curve"/>
      <point x="469" y="356" type="line"/>
      <point x="535" y="0" type="line"/>
      <point x="598" y="0" type="line"/>
      <point x="513" y="381" type="line" smooth="yes"/>
      <point x="502" y="430"/>
      <point x="495" y="496"/>
      <point x="495" y="547" type="curve" smooth="yes"/>
      <point x="495" y="1157" type="line"/>
      <point x="166" y="1157" type="line"/>
      <point x="166" y="1102" type="line"/>
      <point x="436" y="1102" type="line"/>
      <point x="436" y="460" type="line"/>
      <point x="422" y="254"/>
      <point x="282" y="69"/>
      <point x="38" y="58" type="curve" smooth="yes"/>
      <point x="31" y="57"/>
      <point x="23" y="57"/>
      <point x="15" y="58" type="curve"/>
      <point x="15" y="-2" type="line"/>
      <point x="21" y="-3"/>
      <point x="27" y="-3"/>
    </contour>
  </outline>
</glyph>
<glyph name="zayinhebrew" format="2">
  <advance width="653"/>
  <unicode hex="05D6"/>
  <anchor x="387" y="0" name="bottom"/>
  <anchor x="485" y="603" name="center"/>
  <anchor x="311" y="1157" name="top"/>
  <anchor x="3" y="1157" name="topleft"/>
  <outline>
    <contour>
      <point x="367" y="0" type="line"/>
      <point x="429" y="0" type="line"/>
      <point x="245" y="1102" type="line"/>
      <point x="562" y="1102" type="line"/>
      <point x="563" y="1157" type="line"/>
      <point x="84" y="1157" type="line"/>
      <point x="84" y="1106" type="line"/>
      <point x="182" y="1096" type="line"/>
    </contour>
  </outline>
</glyph>
<glyph name="hethebrew" format="2">
  <advance width="1189"/>
  <unicode hex="05D7"/>
  <anchor x="599" y="0" name="bottom"/>
  <anchor x="599" y="603" name="center"/>
  <anchor x="599" y="1157" name="top"/>
  <anchor x="43" y="1157" name="topleft"/>
  <outline>
    <contour>
      <point x="190" y="0" type="line"/>
      <point x="249" y="0" type="line"/>
      <point x="250" y="1102" type="line"/>
      <point x="560" y="1102" type="line" smooth="yes"/>
      <point x="839" y="1102"/>
      <point x="950" y="988"/>
      <point x="950" y="704" type="curve" smooth="yes"/>
      <point x="950" y="0" type="line"/>
      <point x="1009" y="0" type="line"/>
      <point x="1009" y="709" type="line" smooth="yes"/>
      <point x="1009" y="1016"/>
      <point x="867" y="1157"/>
      <point x="557" y="1157" type="curve" smooth="yes"/>
      <point x="191" y="1157" type="line"/>
    </contour>
  </outline>
</glyph>
<glyph name="yodhebrew" format="2">
  <advance width="542"/>
  <unicode hex="05D9"/>
  <anchor x="343" y="0" name="bottom"/>
  <anchor x="127" y="853" name="center"/>
  <anchor x="231" y="1157" name="top"/>
  <anchor x="-11" y="1157" name="topleft"/>
  <outline>
    <contour>
      <point x="303" y="526" type="line"/>
      <point x="362" y="526" type="line"/>
      <point x="362" y="1157" type="line"/>
      <point x="60" y="1157" type="line"/>
      <point x="60" y="1102" type="line"/>
      <point x="303" y="1102" type="line"/>
    </contour>
  </outline>
</glyph>
<glyph name="finalkafhebrew" format="2">
  <advance width="944"/>
  <unicode hex="05DA"/>
  <anchor x="347" y="603" name="bottom"/>
  <anchor x="349" y="603" name="center"/>
  <anchor x="412" y="1157" name="top"/>
  <anchor x="3" y="1157" name="topleft"/>
  <outline>
    <contour>
      <point x="705" y="-416" type="line"/>
      <point x="764" y="-416" type="line"/>
      <point x="764" y="1157" type="line"/>
      <point x="60" y="1157" type="line"/>
      <point x="60" y="1102" type="line"/>
      <point x="705" y="1102" type="line"/>
    </contour>
  </outline>
</glyph>
<glyph name="kafhebrew" format="2">
  <advance width="1064"/>
  <unicode hex="05DB"/>
  <anchor x="508" y="0" name="bottom"/>
  <anchor x="439" y="603" name="center"/>
  <anchor x="472" y="1157" name="top"/>
  <anchor x="2" y="1157" name="topleft"/>
  <outline>
    <contour>
      <point x="415" y="-14" type="curve" smooth="yes"/>
      <point x="699" y="-16"/>
      <point x="874" y="147"/>
      <point x="874" y="441" type="curve" smooth="yes"/>
      <point x="874" y="1157" type="line"/>
      <point x="126" y="1157" type="line"/>
      <point x="126" y="1102" type="line"/>
      <point x="815" y="1102" type="line"/>
      <point x="815" y="417" type="line" smooth="yes"/>
      <point x="815" y="183"/>
      <point x="669" y="50"/>
      <point x="430" y="43" type="curve" smooth="yes"/>
      <point x="336" y="41"/>
      <point x="238" y="57"/>
      <point x="119" y="94" type="curve"/>
      <point x="106" y="43" type="line"/>
      <point x="223" y="5"/>
      <point x="320" y="-14"/>
    </contour>
  </outline>
</glyph>
<glyph name="nunhebrew" format="2">
  <advance width="656"/>
  <unicode hex="05E0"/>
  <anchor x="273" y="0" name="bottom"/>
  <anchor x="189" y="603" name="center"/>
  <anchor x="325" y="1157" name="top"/>
  <anchor x="25" y="1157" name="topleft"/>
  <outline>
    <contour>
      <point x="213" y="-20" type="curve" smooth="yes"/>
      <point x="380" y="-20"/>
      <point x="466" y="68"/>
      <point x="466" y="259" type="curve" smooth="yes"/>
      <point x="466" y="1157" type="line"/>
      <point x="124" y="1157" type="line"/>
      <point x="124" y="1102" type="line"/>
      <point x="407" y="1102" type="line"/>
      <point x="407" y="263" type="line" smooth="yes"/>
      <point x="407" y="107"/>
      <point x="340" y="36"/>
      <point x="216" y="36" type="curve" smooth="yes"/>
      <point x="155" y="36"/>
      <point x="101" y="42"/>
      <point x="69" y="51" type="curve"/>
      <point x="60" y="-4" type="line"/>
      <point x="98" y="-13"/>
      <point x="154" y="-20"/>
    </contour>
  </outline>
</glyph>
<glyph name="samekhhebrew" format="2">
  <advance width="1229"/>
  <unicode hex="05E1"/>
  <anchor x="640" y="0" name="bottom"/>
  <anchor x="640" y="603" name="center"/>
  <anchor x="609" y="1157" name="top"/>
  <anchor x="50" y="1157" name="topleft"/>
  <outline>
    <contour>
      <point x="640" y="-20" type="curve" smooth="yes"/>
      <point x="915" y="-20"/>
      <point x="1099" y="188"/>
      <point x="1099" y="500" type="curve" smooth="yes"/>
      <point x="1099" y="664" type="line" smooth="yes"/>
      <point x="1099" y="968"/>
      <point x="908" y="1170"/>
      <point x="622" y="1170" type="curve" smooth="yes"/>
      <point x="478" y="1170"/>
      <point x="281" y="1140"/>
      <point x="130" y="1095" type="curve"/>
      <point x="144" y="1040" type="line"/>
      <point x="276" y="1079"/>
      <point x="373" y="1103"/>
      <point x="426" y="1108" type="curve"/>
      <point x="427" y="1102" type="line"/>
      <point x="411" y="1099"/>
      <point x="391" y="1090"/>
      <point x="384" y="1086" type="curve" smooth="yes"/>
      <point x="262" y="1015"/>
      <point x="181" y="852"/>
      <point x="181" y="664" type="curve" smooth="yes"/>
      <point x="181" y="500" type="line" smooth="yes"/>
      <point x="181" y="188"/>
      <point x="365" y="-20"/>
    </contour>
    <contour>
      <point x="640" y="37" type="curve" smooth="yes"/>
      <point x="400" y="37"/>
      <point x="240" y="222"/>
      <point x="240" y="500" type="curve" smooth="yes"/>
      <point x="240" y="664" type="line" smooth="yes"/>
      <point x="249" y="933"/>
      <point x="401" y="1112"/>
      <point x="620" y="1112" type="curve" smooth="yes"/>
      <point x="872" y="1112"/>
      <point x="1040" y="933"/>
      <point x="1040" y="664" type="curve" smooth="yes"/>
      <point x="1040" y="500" type="line" smooth="yes"/>
      <point x="1040" y="222"/>
      <point x="880" y="37"/>
    </contour>
  </outline>
</glyph>
<glyph name="ayinhebrew" format="2">
  <advance width="1088"/>
  <unicode hex="05E2"/>
  <anchor x="507" y="0" name="bottom"/>
  <anchor x="586" y="603" name="center"/>
  <anchor x="532" y="1157" name="top"/>
  <anchor x="26" y="1157" name="topleft"/>
  <outline>
    <contour>
      <point x="434" y="-20" type="curve" smooth="yes"/>
      <point x="705" y="-20"/>
      <point x="898" y="140"/>
      <point x="898" y="433" type="curve" smooth="yes"/>
      <point x="898" y="1157" type="line"/>
      <point x="839" y="1157" type="line"/>
      <point x="839" y="433" type="line" smooth="yes"/>
      <point x="839" y="173"/>
      <point x="672" y="32"/>
      <point x="432" y="32" type="curve" smooth="yes"/>
      <point x="333" y="32"/>
      <point x="219" y="56"/>
      <point x="94" y="106" type="curve"/>
      <point x="70" y="57" type="line"/>
      <point x="204" y="5"/>
      <point x="327" y="-20"/>
    </contour>
    <contour>
      <point x="145" y="1157" type="line"/>
      <point x="350" y="254" type="line" smooth="yes"/>
      <point x="374" y="145"/>
      <point x="395" y="90"/>
      <point x="439" y="12" type="curve"/>
      <point x="497" y="8" type="line"/>
      <point x="457" y="77"/>
      <point x="434" y="143"/>
      <point x="407" y="264" type="curve" smooth="yes"/>
      <point x="204" y="1157" type="line"/>
    </contour>
  </outline>
</glyph>
<glyph name="finalpehebrew" format="2">
  <advance width="1105"/>
  <unicode hex="05E3"/>
  <anchor x="433" y="472" name="bottom"/>
  <anchor x="564" y="773" name="center"/>
  <anchor x="566" y="1157" name="top"/>
  <anchor x="40" y="1157" name="topleft"/>
  <outline>
    <contour>
      <point x="915" y="1157" type="line"/>
      <point x="170" y="1157" type="line"/>
      <point x="170" y="1102" type="line"/>
      <point x="291" y="1102" type="line"/>
      <point x="224" y="1012"/>
      <point x="179" y="809"/>
      <point x="179" y="669" type="curve" smooth="yes"/>
      <point x="179" y="513" type="line"/>
      <point x="269" y="467"/>
      <point x="332" y="456"/>
      <point x="493" y="456" type="curve"/>
      <point x="493" y="513" type="line"/>
      <point x="350" y="513"/>
      <point x="299" y="520"/>
      <point x="238" y="550" type="curve"/>
      <point x="238" y="665" type="line" smooth="yes"/>
      <point x="238" y="812"/>
      <point x="282" y="1017"/>
      <point x="348" y="1102" type="curve"/>
      <point x="856" y="1102" type="line"/>
      <point x="856" y="-416" type="line"/>
      <point x="915" y="-416" type="line"/>
    </contour>
  </outline>
</glyph>
<glyph name="tsadihebrew" format="2">
  <advance width="1033"/>
  <unicode hex="05E6"/>
  <anchor x="515" y="0" name="bottom"/>
  <anchor x="360" y="299" name="center"/>
  <anchor x="528" y="1157" name="top"/>
  <anchor x="4" y="1157" name="topleft"/>
  <outline>
    <contour>
      <point x="131" y="0" type="line"/>
      <point x="929" y="0" type="line"/>
      <point x="929" y="47" type="line"/>
      <point x="554" y="587" type="line"/>
      <point x="159" y="1157" type="line"/>
      <point x="89" y="1157" type="line"/>
      <point x="850" y="55" type="line"/>
      <point x="131" y="55" type="line"/>
    </contour>
    <contour>
      <point x="556" y="530" type="line"/>
      <point x="948" y="1157" type="line"/>
      <point x="879" y="1157" type="line"/>
      <point x="519" y="581" type="line"/>
    </contour>
  </outline>
</glyph>
<glyph name="qofhebrew" format="2">
  <advance width="1167"/>
  <unicode hex="05E7"/>
  <anchor x="590" y="0" name="bottom"/>
  <anchor x="587" y="603" name="center"/>
  <anchor x="569" y="1157" name="top"/>
  <anchor x="13" y="1157" name="topleft"/>
  <outline>
    <contour>
      <point x="542" y="0" type="line"/>
      <point x="816" y="9"/>
      <point x="977" y="153"/>
      <point x="977" y="391" type="curve" smooth="yes"/>
      <point x="977" y="1157" type="line"/>
      <point x="170" y="1157" type="line"/>
      <point x="170" y="1102" type="line"/>
      <point x="918" y="1102" type="line"/>
      <point x="918" y="391" type="line" smooth="yes"/>
      <point x="918" y="199"/>
      <point x="769" y="66"/>
      <point x="542" y="56" type="curve"/>
    </contour>
    <contour>
      <point x="197" y="-416" type="line"/>
      <point x="256" y="-416" type="line"/>
      <point x="256" y="453" type="line" smooth="yes"/>
      <point x="256" y="568"/>
      <point x="263" y="633"/>
      <point x="285" y="700" type="curve"/>
      <point x="229" y="700" type="line"/>
      <point x="205" y="626"/>
      <point x="197" y="571"/>
      <point x="197" y="463" type="curve" smooth="yes"/>
    </contour>
  </outline>
</glyph>
<glyph name="tavhebrew" format="2">
  <advance width="1232"/>
  <unicode hex="05EA"/>
  <anchor x="639" y="0" name="bottom"/>
  <anchor x="654" y="603" name="center"/>
  <anchor x="610" y="1157" name="top"/>
  <anchor x="77" y="1157" name="topleft"/>
  <outline>
    <contour>
      <point x="600" y="1157" type="curve" smooth="yes"/>
      <point x="111" y="1157" type="line"/>
      <point x="111" y="1102" type="line"/>
      <point x="366" y="1102" type="line"/>
      <point x="299" y="1030"/>
      <point x="254" y="879"/>
      <point x="254" y="724" type="curve" smooth="yes"/>
      <point x="254" y="274" type="line" smooth="yes"/>
      <point x="254" y="121"/>
      <point x="207" y="53"/>
      <point x="68" y="53" type="curve" smooth="yes"/>
      <point x="46" y="53"/>
      <point x="21" y="55"/>
      <point x="-5" y="59" type="curve"/>
      <point x="-5" y="4" type="line"/>
      <point x="23" y="0"/>
      <point x="49" y="-2"/>
      <point x="74" y="-2" type="curve" smooth="yes"/>
      <point x="235" y="-2"/>
      <point x="313" y="84"/>
      <point x="313" y="274" type="curve" smooth="yes"/>
      <point x="313" y="724" type="line" smooth="yes"/>
      <point x="313" y="882"/>
      <point x="357" y="1033"/>
      <point x="423" y="1102" type="curve"/>
      <point x="603" y="1102" type="line" smooth="yes"/>
      <point x="882" y="1102"/>
      <point x="993" y="988"/>
      <point x="993" y="704" type="curve" smooth="yes"/>
      <point x="993" y="0" type="line"/>
      <point x="1052" y="0" type="line"/>
      <point x="1052" y="709" type="line" smooth="yes"/>
      <point x="1052" y="1016"/>
      <point x="910" y="1157"/>
    </contour>
  </outline>
</glyph>
<glyph name="gershayimhebrew" format="2">
  <advance width="413"/>
  <unicode hex="05F4"/>
  <outline>
    <contour>
      <point x="47" y="936" type="line"/>
      <point x="110" y="1003"/>
      <point x="153" y="1095"/>
      <point x="153" y="1218" type="curve"/>
      <point x="153" y="1400" type="line"/>
      <point x="94" y="1400" type="line"/>
      <point x="94" y="1216" type="line"/>
      <point x="94" y="1113"/>
      <point x="70" y="1046"/>
      <point x="10" y="968" type="curve"/>
    </contour>
    <contour>
      <point x="227" y="936" type="line"/>
      <point x="290" y="1003"/>
      <point x="333" y="1095"/>
      <point x="333" y="1218" type="curve"/>
      <point x="333" y="1400" type="line"/>
      <point x="274" y="1400" type="line"/>
      <point x="274" y="1216" type="line"/>
      <point x="274" y="1113"/>
      <point x="250" y="1046"/>
      <point x="190" y="968" type="curve"/>
    </contour>
  </outline>
</glyph>
<glyph name="afii57598" format="2">
  <unicode hex="200D"/>
  <outline>
    <contour>
      <point x="-589" y="1235" type="line"/>
      <point x="-589" y="-200" type="line"/>
      <point x="-535" y="-200" type="line"/>
      <point x="-535" y="1235" type="line"/>
    </contour>
    <contour>
      <point x="-355" y="987" type="line"/>
      <point x="-317" y="1025" type="line"/>
      <point x="-769" y="1478" type="line"/>
      <point x="-807" y="1440" type="line"/>
    </contour>
    <contour>
      <point x="-807" y="1025" type="line"/>
      <point x="-769" y="987" type="line"/>
      <point x="-317" y="1440" type="line"/>
      <point x="-355" y="1478" type="line"/>
    </contour>
  </outline>
</glyph>
<glyph name="sheqel" format="2">
  <advance width="1513"/>
  <unicode hex="20AA"/>
  <outline>
    <contour>
      <point x="535" y="0" type="line"/>
      <point x="907" y="0" type="line" smooth="yes"/>
      <point x="1157" y="0"/>
      <point x="1323" y="167"/>
      <point x="1323" y="417" type="curve" smooth="yes"/>
      <point x="1323" y="1157" type="line"/>
      <point x="1264" y="1157" type="line"/>
      <point x="1264" y="417" type="line" smooth="yes"/>
      <point x="1264" y="200"/>
      <point x="1124" y="55"/>
      <point x="913" y="55" type="curve" smooth="yes"/>
      <point x="594" y="55" type="line"/>
      <point x="594" y="889" type="line"/>
      <point x="535" y="889" type="line"/>
    </contour>
    <contour>
      <point x="170" y="0" type="line"/>
      <point x="229" y="0" type="line"/>
      <point x="229" y="1102" type="line"/>
      <point x="899" y="1102" type="line"/>
      <point x="899" y="465" type="line" smooth="yes"/>
      <point x="899" y="345"/>
      <point x="891" y="279"/>
      <point x="867" y="209" type="curve"/>
      <point x="871" y="205" type="line"/>
      <point x="924" y="213" type="line"/>
      <point x="950" y="289"/>
      <point x="958" y="344"/>
      <point x="958" y="455" type="curve" smooth="yes"/>
      <point x="958" y="1157" type="line"/>
      <point x="170" y="1157" type="line"/>
    </contour>
  </outline>
</glyph>
<glyph name="ayinaltonehebrew" format="2">
  <advance width="1123"/>
  <unicode hex="FB20"/>
  <anchor x="507" y="0" name="bottom"/>
  <anchor x="587" y="603" name="center"/>
  <anchor x="546" y="1157" name="top"/>
  <anchor x="1" y="1157" name="topleft"/>
  <outline>
    <contour>
      <point x="434" y="-37" type="curve" smooth="yes"/>
      <point x="705" y="-37"/>
      <point x="879" y="123"/>
      <point x="894" y="416" type="curve" smooth="yes"/>
      <point x="933" y="1157" type="line"/>
      <point x="878" y="1157" type="line"/>
      <point x="839" y="416" type="line" smooth="yes"/>
      <point x="825" y="156"/>
      <point x="672" y="15"/>
      <point x="432" y="15" type="curve" smooth="yes"/>
      <point x="333" y="15"/>
      <point x="219" y="39"/>
      <point x="94" y="89" type="curve"/>
      <point x="70" y="40" type="line"/>
      <point x="204" y="-12"/>
      <point x="327" y="-37"/>
    </contour>
    <contour>
      <point x="155" y="1157" type="line"/>
      <point x="360" y="254" type="line" smooth="yes"/>
      <point x="385" y="143"/>
      <point x="406" y="88"/>
      <point x="449" y="12" type="curve"/>
      <point x="507" y="8" type="line"/>
      <point x="467" y="78"/>
      <point x="444" y="144"/>
      <point x="417" y="264" type="curve" smooth="yes"/>
      <point x="214" y="1157" type="line"/>
    </contour>
  </outline>
</glyph>
<glyph name="widehehebrew" format="2">
  <advance width="1625"/>
  <unicode hex="FB23"/>
  <anchor x="786" y="0" name="bottom"/>
  <anchor x="786" y="603" name="center"/>
  <anchor x="784" y="1157" name="top"/>
  <anchor x="10" y="1157" name="topleft"/>
  <outline>
    <contour>
      <point x="173" y="0" type="line"/>
      <point x="232" y="0" type="line"/>
      <point x="232" y="383" type="line" smooth="yes"/>
      <point x="232" y="503"/>
      <point x="240" y="569"/>
      <point x="264" y="639" type="curve"/>
      <point x="260" y="643" type="line"/>
      <point x="207" y="635" type="line"/>
      <point x="181" y="559"/>
      <point x="173" y="504"/>
      <point x="173" y="393" type="curve" smooth="yes"/>
    </contour>
    <contour>
      <point x="1386" y="0" type="line"/>
      <point x="1445" y="0" type="line"/>
      <point x="1445" y="839" type="line" smooth="yes"/>
      <point x="1445" y="1039"/>
      <point x="1327" y="1157"/>
      <point x="1128" y="1157" type="curve" smooth="yes"/>
      <point x="170" y="1157" type="line"/>
      <point x="170" y="1102" type="line"/>
      <point x="1141" y="1102" type="line" smooth="yes"/>
      <point x="1288" y="1102"/>
      <point x="1386" y="1001"/>
      <point x="1386" y="850" type="curve" smooth="yes"/>
    </contour>
  </outline>
</glyph>
<glyph name="widekafhebrew" format="2">
  <advance width="1573"/>
  <unicode hex="FB24"/>
  <anchor x="706" y="0" name="bottom"/>
  <anchor x="706" y="603" name="center"/>
  <anchor x="704" y="1157" name="top"/>
  <anchor x="10" y="1157" name="topleft"/>
  <outline>
    <contour>
      <point x="713" y="-29" type="curve" smooth="yes"/>
      <point x="1155" y="-29"/>
      <point x="1383" y="121"/>
      <point x="1383" y="417" type="curve"/>
      <point x="1383" y="1157" type="line"/>
      <point x="128" y="1157" type="line"/>
      <point x="128" y="1102" type="line"/>
      <point x="1324" y="1102" type="line"/>
      <point x="1324" y="417" type="line" smooth="yes"/>
      <point x="1324" y="158"/>
      <point x="1116" y="27"/>
      <point x="711" y="27" type="curve" smooth="yes"/>
      <point x="545" y="27"/>
      <point x="347" y="49"/>
      <point x="117" y="93" type="curve"/>
      <point x="106" y="38" type="line"/>
      <point x="340" y="-7"/>
      <point x="542" y="-29"/>
    </contour>
  </outline>
</glyph>
<glyph name="alternativeplushebrew" format="2">
  <advance width="1151"/>
  <unicode hex="FB29"/>
  <outline>
    <contour>
      <point x="535" y="1206" type="line"/>
      <point x="535" y="702" type="line"/>
      <point x="73" y="702" type="line"/>
      <point x="73" y="649" type="line"/>
      <point x="1071" y="649" type="line"/>
      <point x="1071" y="702" type="line"/>
      <point x="590" y="702" type="line"/>
      <point x="590" y="1206" type="line"/>
    </contour>
  </outline>
</glyph>
<glyph name="I.smcp" format="2">
  <advance width="460"/>
  <guideline y="721"/>
  <guideline y="444"/>
  <anchor x="230" y="1" name="bottom"/>
  <anchor x="460" y="-407" name="bottom_dd"/>
  <anchor x="251" y="0" name="ogonek"/>
  <anchor x="257" y="0" name="right"/>
  <anchor x="58" y="1161" name="tonos"/>
  <anchor x="230" y="1320" name="top"/>
  <anchor x="460" y="1320" name="top0315"/>
  <anchor x="460" y="1600" name="top_dd"/>
  <outline>
    <contour>
      <point x="257" y="0" type="line"/>
      <point x="257" y="1165" type="line"/>
      <point x="203" y="1165" type="line"/>
      <point x="203" y="0" type="line"/>
    </contour>
  </outline>
</glyph>
